# xmcd
#
# Track frame offsets: 
#        150
#        11752
#        24821
#        38442
#        52081
#        61280
#        71319
#        85358
#        93326
#        106604
#        118756
#        133050
#        141167
#        157970
#        178596
#        189869
#        196646
#        206891
#        225505
#        236903
#        250060
#        264659
#        276541
#        285810
#        297186
#
# Disc length: 4131 seconds
#
# Revision: 1
# Processed by: cddbd v1.5.2PL0 Copyright (c) Steve Scherf et al.
# Submitted via: ExactAudioCopy v0.99pb5
#
DISCID=59102119
DTITLE=Надежда Кадышева и '' Золотое кольцо '' - Сударушка
DYEAR=2010
DGENRE=Pop-Folk
TTITLE0=Сорвали розу
TTITLE1=Едут новосёлы
TTITLE2=Сударушка
TTITLE3=Песня в окошко стучится
TTITLE4=Мимо этой хаты
TTITLE5=Оренбургский платок
TTITLE6=Терем-теремок
TTITLE7=Сронила колечко
TTITLE8=Синий иней
TTITLE9=Лучше нету того цвету
TTITLE10=Верить хочется
TTITLE11=Ручеёк
TTITLE12=Край
TTITLE13=Миллион алых роз
TTITLE14=Ландыши
TTITLE15=На лугу березонька
TTITLE16=Нанэ цоха
TTITLE17=Мы гуляли с тобою у речки
TTITLE18=Радостный мир
TTITLE19=Где-то на белом свете
TTITLE20=Гори, гори, моя звезда
TTITLE21=Коробейники
TTITLE22=Две гитары
TTITLE23=Под окном черёмуха колышется
TTITLE24=Хорошо на свете жить
EXTD=
EXTT0=
EXTT1=
EXTT2=
EXTT3=
EXTT4=
EXTT5=
EXTT6=
EXTT7=
EXTT8=
EXTT9=
EXTT10=
EXTT11=
EXTT12=
EXTT13=
EXTT14=
EXTT15=
EXTT16=
EXTT17=
EXTT18=
EXTT19=
EXTT20=
EXTT21=
EXTT22=
EXTT23=
EXTT24=
PLAYORDER=
